<?xml version="1.0" encoding="UTF-8" standalone="no"?>
<svg
   xmlns:dc="http://purl.org/dc/elements/1.1/"
   xmlns:cc="http://creativecommons.org/ns#"
   xmlns:rdf="http://www.w3.org/1999/02/22-rdf-syntax-ns#"
   xmlns:svg="http://www.w3.org/2000/svg"
   xmlns="http://www.w3.org/2000/svg"
   viewBox="0 0 576 225.33333"
   height="225.33333"
   width="576"
   xml:space="preserve"
   id="svg2"
   version="1.1"><metadata
     id="metadata8"><rdf:RDF><cc:Work
         rdf:about=""><dc:format>image/svg+xml</dc:format><dc:type
           rdf:resource="http://purl.org/dc/dcmitype/StillImage" /></cc:Work></rdf:RDF></metadata><defs
     id="defs6"><clipPath
       id="clipPath20"
       clipPathUnits="userSpaceOnUse"><path
         id="path18"
         d="M 0,0 H 219456 V 85954 H 0 Z" /></clipPath></defs><g
     transform="matrix(1.3333333,0,0,-1.3333333,0,225.33333)"
     id="g10"><g
       transform="matrix(1,0,0,-1,0,169)"
       id="g12"><g
         transform="scale(0.0019685)"
         id="g14"><g
           clip-path="url(#clipPath20)"
           id="g16"><g
             id="g22"><g
               id="g24"><path
                 id="path26"
                 style="fill:#ffffff;fill-opacity:1;fill-rule:evenodd;stroke:none"
                 d="M 0,0 H 219456 V 85954 H 0 Z" /></g></g><g
             id="g28"><g
               id="g30"><path
                 id="path32"
                 style="fill:#eeeeee;fill-opacity:1;fill-rule:evenodd;stroke:none"
                 d="m 938,66171.74 v 0 c 0,-1991.576 1614.4934,-3606.07 3606.0723,-3606.07 H 18967.928 v 0 c 956.39,0 1873.609,379.924 2549.879,1056.193 676.269,676.27 1056.193,1593.487 1056.193,2549.877 V 80595.6 c 0,1991.58 -1614.494,3606.07 -3606.072,3606.07 H 4544.0723 C 2552.4934,84201.67 938,82587.18 938,80595.6 Z" /></g><path
               id="path34"
               style="fill:none;stroke:#595959;stroke-width:381;stroke-linecap:butt;stroke-linejoin:round;stroke-miterlimit:8;stroke-dasharray:none;stroke-opacity:1"
               d="m 938,66171.74 v 0 c 0,-1991.576 1614.4934,-3606.07 3606.0723,-3606.07 H 18967.928 v 0 c 956.39,0 1873.609,379.924 2549.879,1056.193 676.269,676.27 1056.193,1593.487 1056.193,2549.877 V 80595.6 c 0,1991.58 -1614.494,3606.07 -3606.072,3606.07 H 4544.0723 C 2552.4934,84201.67 938,82587.18 938,80595.6 Z" /></g><g
             transform="scale(381)"
             id="g36"><g
               transform="translate(5.2340746,166.9865)"
               id="g38"><g
                 id="g40"><text
                   id="text44"
                   style="font-style:italic;font-variant:normal;font-size:33.33333206px;font-family:TimesNewRomanPS;-inkscape-font-specification:TimesNewRomanPS-ItalicMT;writing-mode:lr-tb;fill:#000000;fill-opacity:1;fill-rule:nonzero;stroke:none"
                   transform="translate(12.670572,37.621567)"><tspan
                     id="tspan42"
                     y="0"
                     x="0">x</tspan></text>
<text
                   id="text48"
                   style="font-variant:normal;font-weight:normal;font-size:22.22222328px;font-family:TimesNewRomanPSMT;-inkscape-font-specification:TimesNewRomanPSMT;writing-mode:lr-tb;fill:#000000;fill-opacity:1;fill-rule:nonzero;stroke:none"
                   transform="translate(27.46319,50.121567)"><tspan
                     id="tspan46"
                     y="0"
                     x="0">1</tspan></text>
</g></g></g><g
             transform="scale(381)"
             id="g50" /><g
             id="g52"><g
               id="g54"><path
                 id="path56"
                 style="fill:#eeeeee;fill-opacity:1;fill-rule:evenodd;stroke:none"
                 d="m 49923.93,66171.74 v 0 c 0,-1991.576 1614.49,-3606.07 3606.074,-3606.07 H 67953.86 v 0 c 956.39,0 1873.61,379.924 2549.874,1056.193 676.276,676.27 1056.196,1593.487 1056.196,2549.877 V 80595.6 c 0,1991.58 -1614.49,3606.07 -3606.07,3606.07 H 53530.004 c -1991.584,0 -3606.074,-1614.49 -3606.074,-3606.07 z" /></g><path
               id="path58"
               style="fill:none;stroke:#595959;stroke-width:381;stroke-linecap:butt;stroke-linejoin:round;stroke-miterlimit:8;stroke-dasharray:none;stroke-opacity:1"
               d="m 49923.93,66171.74 v 0 c 0,-1991.576 1614.49,-3606.07 3606.074,-3606.07 H 67953.86 v 0 c 956.39,0 1873.61,379.924 2549.874,1056.193 676.276,676.27 1056.196,1593.487 1056.196,2549.877 V 80595.6 c 0,1991.58 -1614.49,3606.07 -3606.07,3606.07 H 53530.004 c -1991.584,0 -3606.074,-1614.49 -3606.074,-3606.07 z" /></g><g
             transform="scale(381)"
             id="g60"><g
               transform="translate(133.80608,166.9865)"
               id="g62"><g
                 id="g64"><text
                   id="text68"
                   style="font-style:italic;font-variant:normal;font-size:33.33333206px;font-family:TimesNewRomanPS;-inkscape-font-specification:TimesNewRomanPS-ItalicMT;writing-mode:lr-tb;fill:#000000;fill-opacity:1;fill-rule:nonzero;stroke:none"
                   transform="translate(12.670572,37.621567)"><tspan
                     id="tspan66"
                     y="0"
                     x="0">x</tspan></text>
<text
                   id="text72"
                   style="font-variant:normal;font-weight:normal;font-size:22.22222328px;font-family:TimesNewRomanPSMT;-inkscape-font-specification:TimesNewRomanPSMT;writing-mode:lr-tb;fill:#000000;fill-opacity:1;fill-rule:nonzero;stroke:none"
                   transform="translate(27.46319,50.121567)"><tspan
                     id="tspan70"
                     y="0"
                     x="0">2</tspan></text>
</g></g></g><g
             transform="scale(381)"
             id="g74" /><g
             id="g76"><g
               id="g78"><path
                 id="path80"
                 style="fill:#eeeeee;fill-opacity:1;fill-rule:evenodd;stroke:none"
                 d="m 98909.86,66171.74 v 0 c 0,-1991.576 1614.49,-3606.07 3606.07,-3606.07 h 14423.86 v 0 c 956.39,0 1873.61,379.924 2549.87,1056.193 676.28,676.27 1056.2,1593.487 1056.2,2549.877 V 80595.6 c 0,1991.58 -1614.49,3606.07 -3606.07,3606.07 h -14423.86 c -1991.58,0 -3606.07,-1614.49 -3606.07,-3606.07 z" /></g><path
               id="path82"
               style="fill:none;stroke:#595959;stroke-width:381;stroke-linecap:butt;stroke-linejoin:round;stroke-miterlimit:8;stroke-dasharray:none;stroke-opacity:1"
               d="m 98909.86,66171.74 v 0 c 0,-1991.576 1614.49,-3606.07 3606.07,-3606.07 h 14423.86 v 0 c 956.39,0 1873.61,379.924 2549.87,1056.193 676.28,676.27 1056.2,1593.487 1056.2,2549.877 V 80595.6 c 0,1991.58 -1614.49,3606.07 -3606.07,3606.07 h -14423.86 c -1991.58,0 -3606.07,-1614.49 -3606.07,-3606.07 z" /></g><g
             transform="scale(381)"
             id="g84"><g
               transform="translate(262.37805,166.9865)"
               id="g86"><g
                 id="g88"><text
                   id="text92"
                   style="font-style:italic;font-variant:normal;font-size:33.33333206px;font-family:TimesNewRomanPS;-inkscape-font-specification:TimesNewRomanPS-ItalicMT;writing-mode:lr-tb;fill:#000000;fill-opacity:1;fill-rule:nonzero;stroke:none"
                   transform="translate(12.670572,37.621567)"><tspan
                     id="tspan90"
                     y="0"
                     x="0">x</tspan></text>
<text
                   id="text96"
                   style="font-variant:normal;font-weight:normal;font-size:22.22222328px;font-family:TimesNewRomanPSMT;-inkscape-font-specification:TimesNewRomanPSMT;writing-mode:lr-tb;fill:#000000;fill-opacity:1;fill-rule:nonzero;stroke:none"
                   transform="translate(27.46319,50.121567)"><tspan
                     id="tspan94"
                     y="0"
                     x="0">3</tspan></text>
</g></g></g><g
             transform="scale(381)"
             id="g98" /><g
             id="g100"><g
               id="g102"><path
                 id="path104"
                 style="fill:#eeeeee;fill-opacity:1;fill-rule:evenodd;stroke:none"
                 d="m 147895.8,66171.74 v 0 c 0,-1991.576 1614.48,-3606.07 3606.06,-3606.07 h 14423.86 v 0 c 956.39,0 1873.61,379.924 2549.88,1056.193 676.26,676.27 1056.2,1593.487 1056.2,2549.877 V 80595.6 c 0,1991.58 -1614.5,3606.07 -3606.08,3606.07 h -14423.86 c -1991.58,0 -3606.06,-1614.49 -3606.06,-3606.07 z" /></g><path
               id="path106"
               style="fill:none;stroke:#595959;stroke-width:381;stroke-linecap:butt;stroke-linejoin:round;stroke-miterlimit:8;stroke-dasharray:none;stroke-opacity:1"
               d="m 147895.8,66171.74 v 0 c 0,-1991.576 1614.48,-3606.07 3606.06,-3606.07 h 14423.86 v 0 c 956.39,0 1873.61,379.924 2549.88,1056.193 676.26,676.27 1056.2,1593.487 1056.2,2549.877 V 80595.6 c 0,1991.58 -1614.5,3606.07 -3606.08,3606.07 h -14423.86 c -1991.58,0 -3606.06,-1614.49 -3606.06,-3606.07 z" /></g><g
             transform="scale(381)"
             id="g108"><g
               transform="translate(390.95007,166.9865)"
               id="g110"><g
                 id="g112"><text
                   id="text116"
                   style="font-style:italic;font-variant:normal;font-size:33.33333206px;font-family:TimesNewRomanPS;-inkscape-font-specification:TimesNewRomanPS-ItalicMT;writing-mode:lr-tb;fill:#000000;fill-opacity:1;fill-rule:nonzero;stroke:none"
                   transform="translate(12.670572,37.621567)"><tspan
                     id="tspan114"
                     y="0"
                     x="0">x</tspan></text>
<text
                   id="text120"
                   style="font-variant:normal;font-weight:normal;font-size:22.22222328px;font-family:TimesNewRomanPSMT;-inkscape-font-specification:TimesNewRomanPSMT;writing-mode:lr-tb;fill:#000000;fill-opacity:1;fill-rule:nonzero;stroke:none"
                   transform="translate(27.46319,50.121567)"><tspan
                     id="tspan118"
                     y="0"
                     x="0">4</tspan></text>
</g></g></g><g
             transform="scale(381)"
             id="g122" /><g
             id="g124"><g
               id="g126"><path
                 id="path128"
                 style="fill:#eeeeee;fill-opacity:1;fill-rule:evenodd;stroke:none"
                 d="m 196881.72,66171.74 v 0 c 0,-1991.576 1614.5,-3606.07 3606.08,-3606.07 h 14423.84 v 0 c 956.39,0 1873.61,379.924 2549.89,1056.193 676.27,676.27 1056.19,1593.487 1056.19,2549.877 V 80595.6 c 0,1991.58 -1614.5,3606.07 -3606.08,3606.07 H 200487.8 c -1991.58,0 -3606.08,-1614.49 -3606.08,-3606.07 z" /></g><path
               id="path130"
               style="fill:none;stroke:#595959;stroke-width:381;stroke-linecap:butt;stroke-linejoin:round;stroke-miterlimit:8;stroke-dasharray:none;stroke-opacity:1"
               d="m 196881.72,66171.74 v 0 c 0,-1991.576 1614.5,-3606.07 3606.08,-3606.07 h 14423.84 v 0 c 956.39,0 1873.61,379.924 2549.89,1056.193 676.27,676.27 1056.19,1593.487 1056.19,2549.877 V 80595.6 c 0,1991.58 -1614.5,3606.07 -3606.08,3606.07 H 200487.8 c -1991.58,0 -3606.08,-1614.49 -3606.08,-3606.07 z" /></g><g
             transform="scale(381)"
             id="g132"><g
               transform="translate(519.52203,166.9865)"
               id="g134"><g
                 id="g136"><text
                   id="text140"
                   style="font-style:italic;font-variant:normal;font-size:33.33333206px;font-family:TimesNewRomanPS;-inkscape-font-specification:TimesNewRomanPS-ItalicMT;writing-mode:lr-tb;fill:#000000;fill-opacity:1;fill-rule:nonzero;stroke:none"
                   transform="translate(12.670572,37.621567)"><tspan
                     id="tspan138"
                     y="0"
                     x="0">x</tspan></text>
<text
                   id="text144"
                   style="font-variant:normal;font-weight:normal;font-size:22.22222328px;font-family:TimesNewRomanPSMT;-inkscape-font-specification:TimesNewRomanPSMT;writing-mode:lr-tb;fill:#000000;fill-opacity:1;fill-rule:nonzero;stroke:none"
                   transform="translate(27.46319,50.121567)"><tspan
                     id="tspan142"
                     y="0"
                     x="0">5</tspan></text>
</g></g></g><g
             transform="scale(381)"
             id="g146" /><g
             id="g148"><g
               id="g150"><path
                 id="path152"
                 style="fill:#a4c2f4;fill-opacity:1;fill-rule:evenodd;stroke:none"
                 d="m 22267.52,32158.836 h 24927.89 l 2728.055,2728.054 v 13639.946 0 h -30384 v 0 -13639.946 z" /></g><path
               id="path154"
               style="fill:none;stroke:#595959;stroke-width:381;stroke-linecap:butt;stroke-linejoin:round;stroke-miterlimit:8;stroke-dasharray:none;stroke-opacity:1"
               d="m 22267.52,32158.836 h 24927.89 l 2728.055,2728.054 v 13639.946 0 h -30384 v 0 -13639.946 z" /></g><g
             transform="scale(381)"
             id="g156"><g
               transform="translate(54.864807,87.98652)"
               id="g158"><g
                 id="g160"><text
                   id="text164"
                   style="font-variant:normal;font-size:33.33333206px;font-family:MS;-inkscape-font-specification:MS-PMincho;writing-mode:lr-tb;fill:#000000;fill-opacity:1;fill-rule:nonzero;stroke:none"
                   transform="translate(19.62983,31.69025)"><tspan
                     id="tspan162"
                     y="0"
                     x="0">∧</tspan></text>
</g></g></g><g
             transform="scale(381)"
             id="g166" /><g
             id="g168"><g
               id="g170"><path
                 id="path172"
                 style="fill:#a4c2f4;fill-opacity:1;fill-rule:evenodd;stroke:none"
                 d="M 74289.41,32158.836 H 96181.3 l 2728.05,2728.054 v 13639.946 0 h -27348 v 0 -13639.946 z" /></g><path
               id="path174"
               style="fill:none;stroke:#595959;stroke-width:381;stroke-linecap:butt;stroke-linejoin:round;stroke-miterlimit:8;stroke-dasharray:none;stroke-opacity:1"
               d="M 74289.41,32158.836 H 96181.3 l 2728.05,2728.054 v 13639.946 0 h -27348 v 0 -13639.946 z" /></g><g
             transform="scale(381)"
             id="g176"><g
               transform="translate(191.4052,87.98652)"
               id="g178"><g
                 id="g180"><text
                   id="text184"
                   style="font-variant:normal;font-size:33.33333206px;font-family:MS;-inkscape-font-specification:MS-PMincho;writing-mode:lr-tb;fill:#000000;fill-opacity:1;fill-rule:nonzero;stroke:none"
                   transform="translate(15.645577,31.69025)"><tspan
                     id="tspan182"
                     y="0"
                     x="0">∧</tspan></text>
</g></g></g><g
             transform="scale(381)"
             id="g186" /><g
             id="g188"><g
               id="g190"><path
                 id="path192"
                 style="fill:#a4c2f4;fill-opacity:1;fill-rule:evenodd;stroke:none"
                 d="m 123275.34,32158.836 h 21891.89 l 2728.05,2728.054 v 13639.946 0 h -27348 v 0 -13639.946 z" /></g><path
               id="path194"
               style="fill:none;stroke:#595959;stroke-width:381;stroke-linecap:butt;stroke-linejoin:round;stroke-miterlimit:8;stroke-dasharray:none;stroke-opacity:1"
               d="m 123275.34,32158.836 h 21891.89 l 2728.05,2728.054 v 13639.946 0 h -27348 v 0 -13639.946 z" /></g><g
             transform="scale(381)"
             id="g196"><g
               transform="translate(319.9772,87.98652)"
               id="g198"><g
                 id="g200"><text
                   id="text204"
                   style="font-variant:normal;font-size:33.33333206px;font-family:MS;-inkscape-font-specification:MS-PMincho;writing-mode:lr-tb;fill:#000000;fill-opacity:1;fill-rule:nonzero;stroke:none"
                   transform="translate(15.645577,31.69025)"><tspan
                     id="tspan202"
                     y="0"
                     x="0">∧</tspan></text>
</g></g></g><g
             transform="scale(381)"
             id="g206" /><g
             id="g208"><g
               id="g210"><path
                 id="path212"
                 style="fill:#a4c2f4;fill-opacity:1;fill-rule:evenodd;stroke:none"
                 d="m 172261.27,32158.836 h 21891.89 l 2728.06,2728.054 v 13639.946 0 h -27348 v 0 -13639.946 z" /></g><path
               id="path214"
               style="fill:none;stroke:#595959;stroke-width:381;stroke-linecap:butt;stroke-linejoin:round;stroke-miterlimit:8;stroke-dasharray:none;stroke-opacity:1"
               d="m 172261.27,32158.836 h 21891.89 l 2728.06,2728.054 v 13639.946 0 h -27348 v 0 -13639.946 z" /></g><g
             transform="scale(381)"
             id="g216"><g
               transform="translate(448.5492,87.98652)"
               id="g218"><g
                 id="g220"><text
                   id="text224"
                   style="font-variant:normal;font-size:33.33333206px;font-family:MS;-inkscape-font-specification:MS-PMincho;writing-mode:lr-tb;fill:#000000;fill-opacity:1;fill-rule:nonzero;stroke:none"
                   transform="translate(15.645577,31.69025)"><tspan
                     id="tspan222"
                     y="0"
                     x="0">∧</tspan></text>
</g></g></g><g
             transform="scale(381)"
             id="g226" /><g
             id="g228"><g
               id="g230"><path
                 id="path232"
                 style="fill:#ea9999;fill-opacity:1;fill-rule:evenodd;stroke:none"
                 d="m 98782.375,1752 h 21891.895 l 2728.05,2728.0547 V 18120 v 0 h -27348 v 0 -13639.9453 z" /></g><path
               id="path234"
               style="fill:none;stroke:#595959;stroke-width:762;stroke-linecap:butt;stroke-linejoin:round;stroke-miterlimit:8;stroke-dasharray:none;stroke-opacity:1"
               d="m 98782.375,1752 h 21891.895 l 2728.05,2728.0547 V 18120 v 0 h -27348 v 0 -13639.9453 z" /></g><g
             transform="scale(381)"
             id="g236"><g
               transform="translate(255.6912,8.17855)"
               id="g238"><g
                 id="g240"><text
                   id="text244"
                   style="font-variant:normal;font-size:33.33333206px;font-family:MS;-inkscape-font-specification:MS-PMincho;writing-mode:lr-tb;fill:#000000;fill-opacity:1;fill-rule:nonzero;stroke:none"
                   transform="translate(15.645577,31.69025)"><tspan
                     id="tspan242"
                     y="0"
                     x="0">∨</tspan></text>
</g></g></g><g
             transform="scale(381)"
             id="g246" /><g
             id="g248"><g
               id="g250"><g
                 id="g252"><path
                   id="path254"
                   style="fill:#000000;fill-opacity:0;fill-rule:evenodd;stroke:none"
                   d="m 60741.93,62565.67 -26016,-14040" /></g></g><path
               id="path256"
               style="fill:none;stroke:#595959;stroke-width:381;stroke-linecap:butt;stroke-linejoin:round;stroke-miterlimit:8;stroke-dasharray:none;stroke-opacity:1"
               d="M 60741.93,62565.67 36737.67,49611.344" /><path
               id="path258"
               style="fill:#595959;fill-opacity:1;fill-rule:evenodd;stroke:#595959;stroke-width:381;stroke-linecap:butt;stroke-linejoin:miter;stroke-miterlimit:10;stroke-dasharray:none;stroke-opacity:1"
               d="m 37036.547,49057.535 -1820.457,-267.34 1222.71,1374.961 z" /></g><g
             id="g260"><g
               id="g262"><g
                 id="g264"><path
                   id="path266"
                   style="fill:#000000;fill-opacity:0;fill-rule:evenodd;stroke:none"
                   d="m 11756,62565.67 22980,-14040" /></g></g><path
               id="path268"
               style="fill:none;stroke:#595959;stroke-width:381;stroke-linecap:butt;stroke-linejoin:round;stroke-miterlimit:8;stroke-dasharray:none;stroke-opacity:1"
               d="M 11756,62565.67 32785.273,49717.5" /><path
               id="path270"
               style="fill:#595959;fill-opacity:1;fill-rule:evenodd;stroke:#595959;stroke-width:381;stroke-linecap:butt;stroke-linejoin:miter;stroke-miterlimit:10;stroke-dasharray:none;stroke-opacity:1"
               d="m 33113.367,50254.516 1147.336,-1438.454 -1803.527,364.428 z" /></g><g
             id="g272"><g
               id="g274"><g
                 id="g276"><path
                   id="path278"
                   style="fill:#000000;fill-opacity:0;fill-rule:evenodd;stroke:none"
                   d="m 60741.93,62565.67 24492,-14040" /></g></g><path
               id="path280"
               style="fill:none;stroke:#595959;stroke-width:381;stroke-linecap:butt;stroke-linejoin:round;stroke-miterlimit:8;stroke-dasharray:none;stroke-opacity:1"
               d="M 60741.93,62565.67 83250.68,49662.566" /><path
               id="path282"
               style="fill:#595959;fill-opacity:1;fill-rule:evenodd;stroke:#595959;stroke-width:381;stroke-linecap:butt;stroke-linejoin:miter;stroke-miterlimit:10;stroke-dasharray:none;stroke-opacity:1"
               d="m 83563.66,50208.53 1187.05,-1405.854 -1813,313.922 z" /></g><g
             id="g284"><g
               id="g286"><g
                 id="g288"><path
                   id="path290"
                   style="fill:#000000;fill-opacity:0;fill-rule:evenodd;stroke:none"
                   d="m 109727.86,62565.67 -24492,-14040" /></g></g><path
               id="path292"
               style="fill:none;stroke:#595959;stroke-width:381;stroke-linecap:butt;stroke-linejoin:round;stroke-miterlimit:8;stroke-dasharray:none;stroke-opacity:1"
               d="M 109727.86,62565.67 87219.11,49662.566" /><path
               id="path294"
               style="fill:#595959;fill-opacity:1;fill-rule:evenodd;stroke:#595959;stroke-width:381;stroke-linecap:butt;stroke-linejoin:miter;stroke-miterlimit:10;stroke-dasharray:none;stroke-opacity:1"
               d="m 87532.08,49116.598 -1813,-313.922 1187.05,1405.854 z" /></g><g
             id="g296"><g
               id="g298"><g
                 id="g300"><path
                   id="path302"
                   style="fill:#000000;fill-opacity:0;fill-rule:evenodd;stroke:none"
                   d="m 109727.86,62565.67 24492,-14040" /></g></g><path
               id="path304"
               style="fill:none;stroke:#595959;stroke-width:381;stroke-linecap:butt;stroke-linejoin:round;stroke-miterlimit:8;stroke-dasharray:none;stroke-opacity:1"
               d="M 109727.86,62565.67 132236.61,49662.566" /><path
               id="path306"
               style="fill:#595959;fill-opacity:1;fill-rule:evenodd;stroke:#595959;stroke-width:381;stroke-linecap:butt;stroke-linejoin:miter;stroke-miterlimit:10;stroke-dasharray:none;stroke-opacity:1"
               d="m 132549.6,50208.53 1187.04,-1405.854 -1813,313.922 z" /></g><g
             id="g308"><g
               id="g310"><g
                 id="g312"><path
                   id="path314"
                   style="fill:#000000;fill-opacity:0;fill-rule:evenodd;stroke:none"
                   d="m 158713.8,62565.67 -24492,-14040" /></g></g><path
               id="path316"
               style="fill:none;stroke:#595959;stroke-width:381;stroke-linecap:butt;stroke-linejoin:round;stroke-miterlimit:8;stroke-dasharray:none;stroke-opacity:1"
               d="M 158713.8,62565.67 136205.05,49662.566" /><path
               id="path318"
               style="fill:#595959;fill-opacity:1;fill-rule:evenodd;stroke:#595959;stroke-width:381;stroke-linecap:butt;stroke-linejoin:miter;stroke-miterlimit:10;stroke-dasharray:none;stroke-opacity:1"
               d="m 136518.02,49116.598 -1813,-313.922 1187.04,1405.854 z" /></g><g
             id="g320"><g
               id="g322"><g
                 id="g324"><path
                   id="path326"
                   style="fill:#000000;fill-opacity:0;fill-rule:evenodd;stroke:none"
                   d="m 158713.8,62565.67 24492,-14040" /></g></g><path
               id="path328"
               style="fill:none;stroke:#595959;stroke-width:381;stroke-linecap:butt;stroke-linejoin:round;stroke-miterlimit:8;stroke-dasharray:none;stroke-opacity:1"
               d="M 158713.8,62565.67 181222.55,49662.566" /><path
               id="path330"
               style="fill:#595959;fill-opacity:1;fill-rule:evenodd;stroke:#595959;stroke-width:381;stroke-linecap:butt;stroke-linejoin:miter;stroke-miterlimit:10;stroke-dasharray:none;stroke-opacity:1"
               d="m 181535.53,50208.53 1187.05,-1405.854 -1813,313.922 z" /></g><g
             id="g332"><g
               id="g334"><g
                 id="g336"><path
                   id="path338"
                   style="fill:#000000;fill-opacity:0;fill-rule:evenodd;stroke:none"
                   d="m 207699.72,62565.67 -24492,-14040" /></g></g><path
               id="path340"
               style="fill:none;stroke:#595959;stroke-width:381;stroke-linecap:butt;stroke-linejoin:round;stroke-miterlimit:8;stroke-dasharray:none;stroke-opacity:1"
               d="M 207699.72,62565.67 185190.97,49662.566" /><path
               id="path342"
               style="fill:#595959;fill-opacity:1;fill-rule:evenodd;stroke:#595959;stroke-width:381;stroke-linecap:butt;stroke-linejoin:miter;stroke-miterlimit:10;stroke-dasharray:none;stroke-opacity:1"
               d="m 185503.94,49116.598 -1813,-313.922 1187.04,1405.854 z" /></g><g
             id="g344"><g
               id="g346"><g
                 id="g348"><path
                   id="path350"
                   style="fill:#000000;fill-opacity:0;fill-rule:evenodd;stroke:none"
                   d="m 34731.465,32158.836 74999.995,-14040" /></g></g><path
               id="path352"
               style="fill:none;stroke:#595959;stroke-width:381;stroke-linecap:butt;stroke-linejoin:round;stroke-miterlimit:8;stroke-dasharray:none;stroke-opacity:1"
               d="M 34731.465,32158.836 107484.49,18539.469" /><path
               id="path354"
               style="fill:#595959;fill-opacity:1;fill-rule:evenodd;stroke:#595959;stroke-width:381;stroke-linecap:butt;stroke-linejoin:miter;stroke-miterlimit:10;stroke-dasharray:none;stroke-opacity:1"
               d="m 107600.29,19158.033 1583.69,-936.711 -1815.28,-300.418 z" /></g><g
             id="g356"><g
               id="g358"><g
                 id="g360"><path
                   id="path362"
                   style="fill:#000000;fill-opacity:0;fill-rule:evenodd;stroke:none"
                   d="m 85235.35,32158.836 24492,-14040" /></g></g><path
               id="path364"
               style="fill:none;stroke:#595959;stroke-width:381;stroke-linecap:butt;stroke-linejoin:round;stroke-miterlimit:8;stroke-dasharray:none;stroke-opacity:1"
               d="M 85235.35,32158.836 107744.1,19255.729" /><path
               id="path366"
               style="fill:#595959;fill-opacity:1;fill-rule:evenodd;stroke:#595959;stroke-width:381;stroke-linecap:butt;stroke-linejoin:miter;stroke-miterlimit:10;stroke-dasharray:none;stroke-opacity:1"
               d="m 108057.08,19801.695 1187.05,-1405.855 -1813,313.924 z" /></g><g
             id="g368"><g
               id="g370"><g
                 id="g372"><path
                   id="path374"
                   style="fill:#000000;fill-opacity:0;fill-rule:evenodd;stroke:none"
                   d="m 134221.28,32158.836 -24492,-14040" /></g></g><path
               id="path376"
               style="fill:none;stroke:#595959;stroke-width:381;stroke-linecap:butt;stroke-linejoin:round;stroke-miterlimit:8;stroke-dasharray:none;stroke-opacity:1"
               d="M 134221.28,32158.836 111712.53,19255.729" /><path
               id="path378"
               style="fill:#595959;fill-opacity:1;fill-rule:evenodd;stroke:#595959;stroke-width:381;stroke-linecap:butt;stroke-linejoin:miter;stroke-miterlimit:10;stroke-dasharray:none;stroke-opacity:1"
               d="m 112025.5,18709.764 -1813,-313.924 1187.06,1405.855 z" /></g><g
             id="g380"><g
               id="g382"><g
                 id="g384"><path
                   id="path386"
                   style="fill:#000000;fill-opacity:0;fill-rule:evenodd;stroke:none"
                   d="m 183207.22,32158.836 -73476.01,-14040" /></g></g><path
               id="path388"
               style="fill:none;stroke:#595959;stroke-width:381;stroke-linecap:butt;stroke-linejoin:round;stroke-miterlimit:8;stroke-dasharray:none;stroke-opacity:1"
               d="M 183207.22,32158.836 111976.59,18547.889" /><path
               id="path390"
               style="fill:#595959;fill-opacity:1;fill-rule:evenodd;stroke:#595959;stroke-width:381;stroke-linecap:butt;stroke-linejoin:miter;stroke-miterlimit:10;stroke-dasharray:none;stroke-opacity:1"
               d="m 112094.7,17929.762 -1816.4,293.613 1580.18,942.641 z" /></g></g></g></g></g></svg>